# xmcd
#
# Track frame offsets: 
#        150
#        15938
#        46999
#        66903
#        96760
#        120755
#        147746
#        173686
#        195483
#        215840
#        245251
#        262919
#        279570
#        309405
#
# Disc length: 4623 seconds
#
# Revision: 1
# Processed by: cddbd v1.5.2PL0 Copyright (c) Steve Scherf et al.
# Submitted via: ExactAudioCopy v0.95b1
#
DISCID=be120d0e
DTITLE=Nobby Reed Project - The Best
DYEAR=2006
DGENRE=Blues
TTITLE0=Heavy Heart
TTITLE1=Why
TTITLE2=Joyride
TTITLE3=Cure For The Blues
TTITLE4=E-Z Goin Papa
TTITLE5=Praying The Blues
TTITLE6=Im Crying Too
TTITLE7=Blueday
TTITLE8=Gift of Love
TTITLE9=Meta Blues
TTITLE10=Every Mile
TTITLE11=Hold The Truth
TTITLE12=Last Winter
TTITLE13=Mr Sun
EXTD=YEAR: 2006
EXTT0=
EXTT1=
EXTT2=
EXTT3=
EXTT4=
EXTT5=
EXTT6=
EXTT7=
EXTT8=
EXTT9=
EXTT10=
EXTT11=
EXTT12=
EXTT13=
PLAYORDER=
